<svg width="224" height="223" viewBox="0 0 224 223" fill="none" xmlns="http://www.w3.org/2000/svg">
<path d="M66.8499 93.35C90.7639 93.35 110.15 73.9639 110.15 50.05C110.15 26.1361 90.7639 6.75 66.8499 6.75C42.936 6.75 23.5499 26.1361 23.5499 50.05C23.5499 73.9639 42.936 93.35 66.8499 93.35Z" stroke="#FBB040" stroke-width="13.5" stroke-miterlimit="10"/>
<path d="M168.89 13.75L126.34 87.46H211.45L168.89 13.75Z" stroke="#FBB040" stroke-width="13.5" stroke-miterlimit="10"/>
<path d="M66.0299 215.38C84.2608 215.38 99.0399 200.601 99.0399 182.37C99.0399 164.139 84.2608 149.36 66.0299 149.36C47.799 149.36 33.0199 164.139 33.0199 182.37C33.0199 200.601 47.799 215.38 66.0299 215.38Z" stroke="#FBB040" stroke-width="13.5" stroke-miterlimit="10"/>
<path d="M66.0299 148.1V106.75" stroke="#FBB040" stroke-width="13.5" stroke-miterlimit="10"/>
<path d="M122.23 132.35L66.0299 148.1L10.5499 136.27" stroke="#FBB040" stroke-width="13.5" stroke-miterlimit="10"/>
<path d="M130.55 131.75H211.28V211.57" stroke="#FBB040" stroke-width="13.5" stroke-miterlimit="10"/>
</svg>
